<?xml version="1.0" encoding="utf-8"?>
<!-- Generator: Adobe Illustrator 28.0.0, SVG Export Plug-In . SVG Version: 6.00 Build 0)  -->
<svg version="1.1" id="Layer_1" xmlns="http://www.w3.org/2000/svg" xmlns:xlink="http://www.w3.org/1999/xlink" x="0px" y="0px"
	 viewBox="0 0 24 24" style="enable-background:new 0 0 24 24;" xml:space="preserve">
<style type="text/css">
	.st0{fill:#FFFFFF;}
</style>
<path class="st0" d="M12,15.9c-2.1,0-3.9-1.8-3.9-3.9S9.9,8.1,12,8.1s3.9,1.8,3.9,3.9S14.1,15.9,12,15.9 M20.1,13.1
	c0-0.3,0.1-0.7,0.1-1.1s0-0.8-0.1-1.1l2.3-1.8c0.2-0.1,0.2-0.4,0.1-0.7l-2.2-3.9c-0.1-0.2-0.3-0.3-0.7-0.2l-2.8,1.1
	c-0.5-0.4-1.2-0.8-1.9-1.1l-0.4-3C14.7,1.2,14.5,1,14.2,1H9.8C9.6,1,9.2,1.2,9.2,1.4l-0.4,3C8.1,4.6,7.6,5.1,6.9,5.5L4.2,4.4
	C4,4.3,3.7,4.4,3.5,4.6L1.3,8.5c-0.1,0.1,0,0.4,0.2,0.7l2.3,1.8c0,0.3-0.1,0.8-0.1,1.1s0,0.7,0.1,1.1L1.5,15
	c-0.2,0.1-0.3,0.4-0.1,0.7l2.2,3.8c0.1,0.2,0.3,0.2,0.5,0.2l2.8-1.1c0.6,0.4,1.2,0.8,1.9,1.1l0.4,2.9c0,0.2,0.3,0.4,0.6,0.4h4.4
	c0.3,0,0.6-0.2,0.6-0.4l0.4-2.9c0.7-0.3,1.3-0.7,1.9-1.1l2.8,1.1c0.2,0.1,0.5,0,0.7-0.2l2.2-3.9c0.1-0.2,0.1-0.6-0.1-0.7L20.1,13.1z
	"/>
</svg>
