<?xml version="1.0" encoding="utf-8"?>
<!-- Generator: Adobe Illustrator 28.0.0, SVG Export Plug-In . SVG Version: 6.00 Build 0)  -->
<svg version="1.1" id="Layer_1" xmlns="http://www.w3.org/2000/svg" xmlns:xlink="http://www.w3.org/1999/xlink" x="0px" y="0px"
	 viewBox="0 0 20 20" style="enable-background:new 0 0 20 20;" xml:space="preserve">
<style type="text/css">
	.st0{fill:#106936;}
	.st1{fill:#1E2056;}
	.st2{fill:#1E439C;}
	.st3{fill:#262D65;}
	.st4{fill:#FFFFFF;}
</style>
<path class="st0" d="M20,10c0,2.04-0.61,3.94-1.66,5.52c-0.19,0.28-0.38,0.54-0.59,0.8C15.91,18.57,13.12,20,10,20
	s-5.91-1.43-7.75-3.68c-0.21-0.26-0.41-0.53-0.59-0.81C0.61,13.93,0,12.04,0,10C0,4.48,4.48,0,10,0S20,4.48,20,10z"/>
<path class="st1" d="M18.34,15.52c-0.19,0.28-0.38,0.54-0.59,0.8H6.11l1.7-3.4l4.61-9.24l0.01,0.01V3.7l1.89,3.78l0.01,0.01
	L18.34,15.52z"/>
<path class="st2" d="M9.51,16.32H2.25c-0.21-0.26-0.41-0.53-0.59-0.81l2.02-4.03l1.7-3.4L7.1,11.5l0.71,1.42L9.51,16.32z"/>
<polygon class="st3" points="16.89,16.32 10.95,16.32 13.92,10.38 "/>
<polygon class="st4" points="13.91,8.67 13.93,8.9 13.7,8.68 12.43,7.44 11.36,8.72 10.7,9.51 10.7,7.74 10.31,7.93 12.43,3.69 
	14.33,7.49 13.74,7.09 "/>
<polygon class="st4" points="7.1,11.5 5.9,11.13 5.68,11.86 5.24,13.35 4.75,11.95 4.47,11.13 3.68,11.48 5.39,8.07 "/>
<polygon class="st4" points="15.26,13.05 14.51,12.74 13.93,13.35 13.28,12.74 12.65,12.93 13.93,10.38 "/>
</svg>
