<?xml version="1.0" encoding="utf-8"?>
<!-- Generator: Adobe Illustrator 23.0.1, SVG Export Plug-In . SVG Version: 6.00 Build 0)  -->
<svg version="1.1" id="Layer_1" xmlns="http://www.w3.org/2000/svg" xmlns:xlink="http://www.w3.org/1999/xlink" x="0px" y="0px"
	 viewBox="0 0 24 24" style="enable-background:new 0 0 24 24;" xml:space="preserve">
<path d="M12,4.5C7,4.5,2.7,7.6,1,12c1.7,4.4,6,7.5,11,7.5c0.4,0,0.7,0,1.1,0c-0.1-0.3-0.1-0.6-0.1-1s0-0.7,0.1-1.1
	c-0.4,0-0.7,0.1-1.1,0.1c-3.8,0-7.2-2.1-8.8-5.5c1.6-3.4,5-5.5,8.8-5.5s7.2,2.1,8.8,5.5c-0.1,0.2-0.3,0.4-0.4,0.7
	c0.7,0.2,1.3,0.4,1.9,0.8c0.3-0.5,0.5-1,0.7-1.5C21.3,7.6,17,4.5,12,4.5 M12,9c-1.7,0-3,1.3-3,3s1.3,3,3,3s3-1.3,3-3S13.7,9,12,9
	 M18,14.5v3h-3v2h3v3h2v-3h3v-2h-3v-3H18z"/>
</svg>
