<?xml version="1.0" encoding="utf-8"?>
<!-- Generator: Adobe Illustrator 28.0.0, SVG Export Plug-In . SVG Version: 6.00 Build 0)  -->
<svg version="1.1" id="Layer_1" xmlns="http://www.w3.org/2000/svg" xmlns:xlink="http://www.w3.org/1999/xlink" x="0px" y="0px"
	 viewBox="0 0 20 20" style="enable-background:new 0 0 20 20;" xml:space="preserve">
<style type="text/css">
	.st0{fill:#F9B2BF;}
	.st1{fill:#088E46;}
	.st2{fill:#BABABA;}
	.st3{fill:#F9D84D;}
</style>
<circle class="st0" cx="10" cy="10" r="9.8"/>
<g>
	<path class="st1" d="M17.5,10c0,4.1-3.4,7.5-7.5,7.5S2.5,14.1,2.5,10H17.5z"/>
	<path class="st2" d="M10.8,17.5c-0.3,0-0.5,0-0.8,0c-1,0-2-0.2-2.9-0.6c1.1-1.4,3.7-4.7,2.2-5c-0.5-0.1-1.3,0.2-1.3-0.6
		c0-0.2,0.2-0.7,0.4-1.3h1.6c-0.1,0.5-0.1,0.9,0.2,0.9c1,0,1.7,0.2,1.9,0.5C12.9,12.1,11.5,15.8,10.8,17.5z"/>
	<path class="st3" d="M17.5,10h-15c0-4.1,3.4-7.5,7.5-7.5S17.5,5.9,17.5,10z"/>
	<polygon class="st3" points="10.5,2 9.5,2 10,0.5 	"/>
	<polygon class="st3" points="8.5,2.2 7.4,2.4 7.5,0.8 	"/>
	<polygon class="st3" points="6.5,2.8 5.6,3.4 5.2,1.7 	"/>
	<polygon class="st3" points="4.8,4 4,4.7 3.2,3.2 	"/>
	<polygon class="st3" points="3.4,5.5 2.8,6.5 1.7,5.2 	"/>
	<polygon class="st3" points="2.5,7.4 2.2,8.5 0.8,7.5 	"/>
	<polygon class="st3" points="2,9.5 2,10 0.5,10 	"/>
	<polygon class="st3" points="19.5,10 18,10 18,9.5 	"/>
	<polygon class="st3" points="17.8,8.5 17.5,7.4 19.2,7.5 	"/>
	<polygon class="st3" points="17.2,6.5 16.6,5.5 18.3,5.2 	"/>
	<polygon class="st3" points="16,4.7 15.2,4 16.8,3.2 	"/>
	<polygon class="st3" points="14.4,3.4 13.5,2.8 14.8,1.7 	"/>
	<polygon class="st3" points="12.6,2.4 11.5,2.2 12.5,0.8 	"/>
</g>
</svg>
