<?xml version="1.0" encoding="utf-8"?>
<!-- Generator: Adobe Illustrator 28.0.0, SVG Export Plug-In . SVG Version: 6.00 Build 0)  -->
<svg version="1.1" id="Layer_1" xmlns="http://www.w3.org/2000/svg" xmlns:xlink="http://www.w3.org/1999/xlink" x="0px" y="0px"
	 viewBox="0 0 24 24" style="enable-background:new 0 0 24 24;" xml:space="preserve">
<style type="text/css">
	.st0{fill:#FFFFFF;}
	.st1{display:none;}
	.st2{display:inline;}
</style>
<g id="home">
	<polygon class="st0" points="12,2 0.2,12.6 3.8,12.6 3.8,22 9.1,22 9.1,12.6 14.9,12.6 14.9,22 20.2,22 20.2,12.6 23.8,12.6 	"/>
</g>
<g id="profile" class="st1">
	<g class="st2">
		<path class="st0" d="M12,7.4c1.2,0,2.3,1,2.3,2.3S13.3,12,12,12s-2.3-1-2.3-2.3S10.8,7.4,12,7.4"/>
		<path class="st0" d="M12,13.6c1.5,0,4.5,0.8,4.5,2.3v0.8h-9v-0.8C7.5,14.4,10.5,13.6,12,13.6z"/>
	</g>
</g>
</svg>
