<?xml version="1.0" encoding="utf-8"?>
<!-- Generator: Adobe Illustrator 23.0.1, SVG Export Plug-In . SVG Version: 6.00 Build 0)  -->
<svg version="1.1" id="Layer_1" xmlns="http://www.w3.org/2000/svg" xmlns:xlink="http://www.w3.org/1999/xlink" x="0px" y="0px"
	 viewBox="0 0 24 24" style="enable-background:new 0 0 24 24;" xml:space="preserve">
<style type="text/css">
	.st0{fill:#FFFFFF;}
</style>
<path class="st0" d="M11,15h6v2h-6V15 M9,7H7v2h2V7 M11,13h6v-2h-6V13 M11,9h6V7h-6V9 M9,11H7v2h2V11 M21,5v14c0,1.1-0.9,2-2,2H5
	c-1.1,0-2-0.9-2-2V5c0-1.1,0.9-2,2-2h14C20.1,3,21,3.9,21,5 M19,5H5v14h14V5 M9,15H7v2h2V15z"/>
</svg>
