<?xml version="1.0" encoding="utf-8"?>
<!-- Generator: Adobe Illustrator 28.0.0, SVG Export Plug-In . SVG Version: 6.00 Build 0)  -->
<svg version="1.1" id="Layer_1" xmlns="http://www.w3.org/2000/svg" xmlns:xlink="http://www.w3.org/1999/xlink" x="0px" y="0px"
	 viewBox="0 0 24 24" style="enable-background:new 0 0 24 24;" xml:space="preserve">
<path d="M9.2,1.8c4.1,0,7.4,3.3,7.4,7.4c0,1.8-0.7,3.5-1.8,4.8l0.3,0.3H16l5.7,5.7L20,21.8L14.3,16v-0.9L14,14.8
	c-1.3,1.1-3,1.8-4.8,1.8c-4.1,0-7.4-3.3-7.4-7.4S5.1,1.8,9.2,1.8 M9.2,4C6.3,4,4,6.3,4,9.2s2.3,5.1,5.1,5.1s5.1-2.3,5.1-5.1
	S12,4,9.2,4z"/>
</svg>
