<?xml version="1.0" encoding="utf-8"?>
<!-- Generator: Adobe Illustrator 28.0.0, SVG Export Plug-In . SVG Version: 6.00 Build 0)  -->
<svg version="1.1" id="Layer_1" xmlns="http://www.w3.org/2000/svg" xmlns:xlink="http://www.w3.org/1999/xlink" x="0px" y="0px"
	 viewBox="0 0 20 20" style="enable-background:new 0 0 20 20;" xml:space="preserve">
<style type="text/css">
	.st0{fill:#BFF4B8;}
	.st1{fill:#0C8642;}
	.st2{fill:#F38520;}
	.st3{fill:#333333;}
</style>
<circle class="st0" cx="10" cy="10" r="9.5"/>
<g>
	<g>
		<g>
			<path class="st1" d="M10.9,9.4C11,9.3,13,7,13,7l0.2,0l3.2,0.6l-0.3,0.4l-1.2-2.5l0-0.1l0-0.1l1.4-1.6l-1.2,1.8l0-0.1
				c0.2,0.3,1.6,2.6,1.8,2.8c-0.3,0-3.4-0.3-3.8-0.3l0.4-0.2l-1.6,2.3L10.9,9.4L10.9,9.4z"/>
		</g>
		<g>
			<path class="st1" d="M15.1,5.2C15,5,14.4,3.7,14.4,3.5c0,0,1.1-0.9,1.2-0.9l-0.6,1.2l0-0.3l1.1,1L15.1,5.2L15.1,5.2z"/>
		</g>
		<g>
			<path class="st1" d="M15.8,6.2l1.3,0.5l-0.3,0.2l0.7-1.4l-0.1,1.6l0,0.2c-0.2,0-1.5,0.1-1.7,0.1L15.8,6.2L15.8,6.2z"/>
		</g>
		<g>
			<path class="st1" d="M12.7,8c-0.2-0.2-1.3-1.5-1.4-1.7c0.1-0.1,1.4-2.1,1.5-2.2c0,0,0.9-0.6,0.9-0.6L13,4.2
				c0.1-0.2-0.8,2.3-0.8,2.2L12.1,6l1.5,1.1L12.7,8L12.7,8z"/>
		</g>
		<g>
			<path class="st1" d="M12.2,5c-0.1-0.2-0.6-1.4-0.7-1.6c0,0,1.1-0.9,1.2-1l-0.6,1.2l0-0.3l1.1,1L12.2,5L12.2,5z"/>
		</g>
	</g>
	<g>
		<g>
			<path class="st1" d="M8.1,10.1L6.5,7.8L6.9,8C6.5,8,3.4,8.3,3.1,8.3c0.2-0.2,1.6-2.5,1.8-2.8l0,0.1L3.6,3.8l1.4,1.6l0,0.1l0,0.1
				L3.9,8.1L3.6,7.7l3.2-0.6L7,7l0.2,0.2l1.8,2.1L8.1,10.1L8.1,10.1z"/>
		</g>
		<g>
			<path class="st1" d="M3.9,4.5l1.1-1l0,0.3L4.4,2.6c0.1,0.1,1.2,0.9,1.2,0.9L5.5,3.8L4.9,5.2L3.9,4.5L3.9,4.5z"/>
		</g>
		<g>
			<path class="st1" d="M4.4,7.4c-0.2,0-1.5-0.1-1.7-0.1c0,0-0.1-1.7-0.1-1.8l0.7,1.4L2.9,6.7l1.3-0.5L4.4,7.4L4.4,7.4z"/>
		</g>
		<g>
			<path class="st1" d="M6.4,7.1L7.9,6L7.8,6.4L7,4.2c0.2,0.2-0.7-0.7-0.7-0.7c0,0,0.9,0.6,0.9,0.6l0,0l1.3,2l0.1,0.2
				C8.5,6.4,7.4,7.8,7.3,7.9C7.3,8,6.4,7.1,6.4,7.1L6.4,7.1z"/>
		</g>
		<g>
			<path class="st1" d="M6.9,4.3l1.1-1l0,0.3L7.4,2.4c0.1,0,1.1,1,1.2,1L8.4,3.6L7.8,5L6.9,4.3L6.9,4.3z"/>
		</g>
	</g>
	<path class="st2" d="M10,16.6c-0.9,0-2.5-7.1-2.5-7.1S8,8.1,10,8.1s2.5,1.4,2.5,1.4S10.9,16.6,10,16.6z"/>
	<ellipse class="st3" cx="11.7" cy="11.7" rx="0.6" ry="0.3"/>
	<ellipse class="st3" cx="8.3" cy="11.7" rx="0.6" ry="0.3"/>
	<polygon class="st3" points="10,16.1 9.4,16.1 10,16.7 10.6,16.1 	"/>
</g>
</svg>
