<?xml version="1.0" encoding="utf-8"?>
<!-- Generator: Adobe Illustrator 28.0.0, SVG Export Plug-In . SVG Version: 6.00 Build 0)  -->
<svg version="1.1" id="Layer_1" xmlns="http://www.w3.org/2000/svg" xmlns:xlink="http://www.w3.org/1999/xlink" x="0px" y="0px"
	 viewBox="0 0 20 20" style="enable-background:new 0 0 20 20;" xml:space="preserve">
<style type="text/css">
	.st0{fill:#C4C2C2;}
	.st1{fill:#F38520;}
	.st2{fill:#3F61AD;}
</style>
<path class="st0" d="M19.5,10c0,2.1-0.7,4.1-1.9,5.7c-1.2,1.5-2.8,2.7-4.6,3.3c-0.9,0.3-2,0.5-3,0.5c-1.6,0-3.1-0.4-4.4-1.1
	C4.4,17.8,3.4,17,2.6,16c-1.3-1.6-2.1-3.7-2.1-6s0.8-4.4,2.1-6c0,0,0,0,0,0c0.7-0.9,1.5-1.6,2.5-2.2C6,1.3,6.9,1,7.9,0.7
	C8.6,0.6,9.3,0.5,10,0.5c0.7,0,1.4,0.1,2.1,0.2c0.9,0.2,1.8,0.6,2.6,1c1,0.6,1.9,1.3,2.6,2.2c0.1,0.1,0.2,0.2,0.3,0.3
	C18.8,5.9,19.5,7.9,19.5,10z"/>
<path class="st1" d="M5.5,8L5.5,8c0,2.1,0.1,4.3,0.1,6.8v3.6C4.4,17.8,3.4,17,2.6,16V4h2.8L8,11.2v0.4C7,10.4,6,9.2,5.5,8z"/>
<path class="st1" d="M17.6,4v11.7c-1.2,1.5-2.8,2.7-4.6,3.3l-1.3-2v-6l0.2-0.4c1,1.4,2.3,2.9,3,4.3h0c-0.2-2-0.3-4.1-0.3-6.5V4H17.6
	z"/>
<path class="st2" d="M14.7,1.7L11.2,11v7.5H8.5v-7.3L5.2,1.8C6,1.3,6.9,1,7.9,0.7L9,4.8C9.4,6.1,9.7,7.1,10,8.2h0
	c0.3-1.1,0.5-2.2,0.9-3.4l1.2-4.1C13,0.9,13.9,1.3,14.7,1.7z"/>
</svg>
