<?xml version="1.0" encoding="utf-8"?>
<!-- Generator: Adobe Illustrator 28.0.0, SVG Export Plug-In . SVG Version: 6.00 Build 0)  -->
<svg version="1.1" id="Layer_1" xmlns="http://www.w3.org/2000/svg" xmlns:xlink="http://www.w3.org/1999/xlink" x="0px" y="0px"
	 viewBox="0 0 5000 5000" style="enable-background:new 0 0 5000 5000;" xml:space="preserve">
<style type="text/css">
	.st0{fill:none;stroke:#000000;stroke-width:50;stroke-miterlimit:10;}
	.st1{fill:#AEC61E;}
	.st2{fill:#F69D1F;}
	.st3{fill:#141414;}
	.st4{fill:#E57B07;}
	.st5{fill:#F39200;}
</style>
<circle class="st0" cx="2449.5" cy="2605.8" r="1910.2"/>
<g>
	<path class="st1" d="M3455.9,2150.8c-2.2,16-3.4,32.4-3.4,49c0,195.1,158.2,353.4,353.4,353.4c195.1,0,353.4-158.2,353.4-353.4
		c0-20.8-1.8-41.3-5.3-61.1c-29-166-173.8-292.2-348.1-292.2C3627.3,1846.5,3479.7,1978.9,3455.9,2150.8z"/>
	<g>
		<g>
			<path class="st2" d="M3622.2,2483c-62.8-40.9-111.2-102-135.9-174.1c28.9-46.2,59.9-86.7,93.3-121.5
				c12,26.4,21.4,59.9,28.2,100.9C3616.3,2339.1,3621,2402.2,3622.2,2483z"/>
			<path class="st2" d="M3565.2,2161.1c-31.7,32-61.4,68.8-89.2,110.6c-5-23.2-7.7-47.2-7.7-71.9c0-30.6,4.1-60.2,11.7-88.3
				c22.1,0.7,41,7,57.1,19.1C3547.4,2138.3,3556.8,2148.4,3565.2,2161.1z"/>
			<path class="st2" d="M3629.2,2105c-14.7,11.1-29,23-42.9,35.8c-9.5-13.5-20.1-24.6-31.9-33.4c-18.8-14-40.7-22.1-65.4-24.2
				c20.4-55.1,54.7-103.5,98.7-140.8C3592.2,1991.6,3606.3,2046.9,3629.2,2105z"/>
			<path class="st2" d="M3956.8,2501.8c-45.4,22.8-96.7,35.6-150.9,35.6c-55.6,0-108.1-13.5-154.4-37.4
				c-0.8-91.3-5.6-159.8-15.1-216.4c-8-48.2-19.6-87.2-35.1-117.6c12.8-12,25.8-23.2,39.3-33.7c2.3,5.3,4.7,10.6,7.1,15.9
				c46.3,100.7,114.2,197.9,186.3,266.5C3874.9,2453.7,3916.2,2483,3956.8,2501.8z"/>
			<path class="st2" d="M4078.5,2000.8c-54.5-6.1-106-7.4-154-3.7c-63.2,4.8-122.4,18.4-176.5,40.4c-3-10.5-4.4-21.4-4.2-32.6
				c0.6-31.7,15.7-58.8,47.4-85.3c20.8-17.3,47.1-33.4,80.6-51c0,0,0,0,0,0C3956.2,1885.4,4029.4,1933.8,4078.5,2000.8z"/>
			<path class="st2" d="M4143.5,2199.8c0,24.5-2.6,48.4-7.6,71.4c-2.1-1.6-4.3-3.2-6.6-4.8c-45.5-32.1-107.9-59.2-174-87.8
				c-52.7-22.8-107.1-46.4-154-73.4c-17.8-10.2-32.2-24.7-42.1-41.6c96.9-39.4,209.1-49.3,339.9-31.1
				C4127.3,2081.9,4143.5,2139,4143.5,2199.8z"/>
			<path class="st2" d="M3822.9,1862.6c-19.3,11.4-35.9,22.8-50.4,34.8c-38.1,31.8-57,66.8-57.8,107c-0.3,15.4,1.9,30.6,6.5,44.9
				c-1,0.5-2,0.9-3,1.4c-22.3,10.7-43.8,23-64.6,36.9c-22.6-59-36.2-116.4-38.3-166.4c54.3-37.2,119.9-59,190.5-59
				C3811.6,1862.2,3817.3,1862.3,3822.9,1862.6z"/>
		</g>
		<path class="st3" d="M4143.7,2057.1c-2.7-6.4-5.6-12.7-8.7-19c-5.4-11.1-11.4-21.8-17.9-32.2c-14.7-23.6-32.1-45.4-52-65.4
			c-33.7-33.7-72.9-60.1-116.5-78.6c-12.2-5.2-24.7-9.7-37.3-13.4c-14.5-4.3-29.2-7.8-44.1-10.3c-20.1-3.4-40.6-5.1-61.4-5.1
			c-49.5,0-97.5,9.7-142.7,28.8c-16.4,6.9-32.1,15-47.2,24.1c-10.3,6.2-20.2,13-29.9,20.2c-13.9,10.4-27.1,21.8-39.5,34.3
			c-33.7,33.7-60.1,72.9-78.6,116.5c-3.7,8.7-7,17.5-10,26.4c-3.4,10-6.2,20.1-8.7,30.3c-6.7,28-10.1,56.7-10.1,86
			c0,36.1,5.1,71.4,15.4,105.4c3.6,12,7.8,23.9,12.7,35.5c0.2,0.6,0.5,1.2,0.8,1.8c18.5,43.7,44.9,82.9,78.6,116.5
			c22.9,22.9,48.3,42.4,75.9,58.4c9.4,5.4,19.1,10.5,29,15.1c3.8,1.8,7.7,3.5,11.6,5.1c45.2,19.1,93.2,28.8,142.7,28.8
			c49.5,0,97.5-9.7,142.7-28.8c15.1-6.4,29.7-13.7,43.7-22c11.3-6.7,22.2-13.9,32.7-21.8c14.1-10.6,27.6-22.2,40.2-34.8
			c33.7-33.7,60.1-72.9,78.6-116.5c2.5-5.9,4.9-12,7-18c3.9-10.6,7.2-21.3,10-32.2c7.8-30,11.8-61,11.8-92.5
			C4172.5,2150.3,4162.8,2102.3,4143.7,2057.1z M3871.7,1868.6c84.5,16.8,157.7,65.1,206.8,132.2c-54.5-6.1-106-7.4-154-3.7
			c-63.2,4.8-122.4,18.4-176.5,40.4c-3-10.5-4.4-21.4-4.2-32.6c0.6-31.7,15.7-58.8,47.4-85.3
			C3811.9,1902.3,3838.3,1886.2,3871.7,1868.6C3871.7,1868.6,3871.7,1868.6,3871.7,1868.6z M3805.9,1862.2c5.7,0,11.4,0.2,17,0.4
			c-19.3,11.4-35.9,22.8-50.4,34.8c-38.1,31.8-57,66.8-57.8,107c-0.3,15.4,1.9,30.6,6.5,44.9c-1,0.5-2,0.9-3,1.4
			c-22.3,10.7-43.8,23-64.6,36.9c-22.6-59-36.2-116.4-38.3-166.4C3669.6,1884,3735.2,1862.2,3805.9,1862.2z M3587.7,1942.3
			c4.5,49.3,18.6,104.6,41.5,162.7c-14.7,11.1-29,23-42.9,35.8c-9.5-13.5-20.1-24.6-31.9-33.4c-18.8-14-40.7-22.1-65.4-24.2
			C3509.4,2028,3543.7,1979.6,3587.7,1942.3z M3468.2,2199.8c0-30.6,4.1-60.2,11.7-88.3c22.1,0.7,41,7,57.1,19.1
			c10.4,7.7,19.7,17.9,28.1,30.5c-31.7,32-61.4,68.8-89.2,110.6C3470.9,2248.5,3468.2,2224.5,3468.2,2199.8z M3486.3,2308.9
			c28.9-46.2,59.9-86.7,93.3-121.5c12,26.4,21.4,59.9,28.2,100.9c8.4,50.7,13.2,113.8,14.4,194.6
			C3559.4,2442.2,3511,2381,3486.3,2308.9z M3805.9,2537.5c-55.6,0-108.1-13.5-154.4-37.4c-0.8-91.3-5.6-159.8-15.1-216.4
			c-8-48.2-19.6-87.2-35.1-117.6c12.8-12,25.8-23.2,39.3-33.7c2.3,5.3,4.7,10.6,7.1,15.9c46.3,100.7,114.2,197.9,186.3,266.5
			c40.9,39,82.2,68.2,122.8,87.1C3911.4,2524.6,3860.1,2537.5,3805.9,2537.5z M3988.7,2483.6c-43.4-16.2-89.2-46.5-134.7-89.8
			c-78.8-75.1-146.4-177.9-189.4-279c21.8-15,44.4-28.1,67.9-39.4c12.5,22.5,31.1,41.6,54.3,55c48.3,27.7,103.5,51.7,156.9,74.8
			c71.8,31.1,141.2,61.2,184,96.6C4103.8,2377.3,4054,2441.4,3988.7,2483.6z M4129.3,2266.4c-45.5-32.1-107.9-59.2-174-87.8
			c-52.7-22.8-107.1-46.4-154-73.4c-17.8-10.2-32.2-24.7-42.1-41.6c96.9-39.4,209.1-49.3,339.9-31.1
			c28.3,49.3,44.4,106.5,44.4,167.3c0,24.5-2.6,48.4-7.6,71.4C4133.8,2269.6,4131.6,2268,4129.3,2266.4z"/>
		<g>
			<path class="st2" d="M4092.7,2377.8c14.7-23.6,26.5-49.1,35.1-76c-42.8-35.4-112.2-65.5-184-96.6
				c-53.4-23.1-108.6-47.1-156.9-74.8c-23.3-13.4-41.9-32.5-54.3-55c-19.9,9.5-39.1,20.3-57.7,32.5
				C3755.1,2255,3896.7,2396.3,4092.7,2377.8z"/>
			<path class="st4" d="M3674.9,2107.8c-3.4,2.2-6.9,4.5-10.3,6.9c43,101.1,110.6,204,189.4,279c45.5,43.3,91.2,73.6,134.7,89.8
				c42-27.1,77.6-63.3,104-105.8C3896.7,2396.3,3755.1,2255,3674.9,2107.8z"/>
		</g>
	</g>
	<g>
		<path d="M2365.7,2094.2v-894.7h-594.2v1134.1C1956.7,2237.8,2155,2158,2365.7,2094.2z"/>
		<path d="M2365.7,2700.8c-193.6,65.2-391.5,154.6-594.2,268.4v931.3h1940.9v-536.3H2365.7V2700.8z"/>
	</g>
	<g>
		<path class="st5" d="M2315.7,2044.2v-894.7h-594.2v1134.1C1906.7,2187.8,2105,2108,2315.7,2044.2z"/>
		<path class="st5" d="M2315.7,2650.8c-193.6,65.2-391.5,154.6-594.2,268.4v931.3h1940.9v-536.3H2315.7V2650.8z"/>
	</g>
	<path d="M3472.6,2455.4c-847-158.2-1737.2,217.5-2658.7,980.4c-6.6-12.4-13.1-25-19.5-37.6c178.1-163.7,365.8-317,561.8-458.4
		c419.5-298.7,891.1-547.3,1405.3-624.7c136.8-20.3,275.5-27.1,413.6-19.4c-103.5-10.3-207.9-11.4-311.7-4.1
		c-29.8,2.1-61.1,5-90.8,8.4c-315.5,36.6-619.4,144.8-901.1,289.2c-339.8,174.9-651,401.7-936.5,654.9
		c-50.3,45-100.1,90.8-149,137.5c-9.3-18.7-18.2-37.7-26.8-56.7c21.7-24,43.7-47.9,65.9-71.5c208.9-220.8,439.9-421.2,692.1-591.1
		c370.2-249.8,789.5-430.1,1230.5-506.5c52.4-9.3,106.6-17.2,159.4-23.6c33.2-4.1,66.8-7.4,100.2-10.5
		c55.6-4.8,112.1-8.1,167.8-10.2c-621.7-6.4-1223.8,208.7-1729.1,565.9c-256.3,180.1-488.9,393.1-695.2,628.6
		c-8.4-19.1-16.5-38.4-24.3-57.9c642.4-841.1,1572.8-1242.5,2735.7-1288.9c-35.2,53.1-59.1,114.3-68.3,180.2
		c-2.8,19.7-4.2,39.9-4.2,60.4C3389.6,2295.3,3420.5,2383.6,3472.6,2455.4z"/>
</g>
</svg>
