<?xml version="1.0" encoding="utf-8"?>
<!-- Generator: Adobe Illustrator 28.0.0, SVG Export Plug-In . SVG Version: 6.00 Build 0)  -->
<svg version="1.1" id="Layer_1" xmlns="http://www.w3.org/2000/svg" xmlns:xlink="http://www.w3.org/1999/xlink" x="0px" y="0px"
	 viewBox="0 0 24 24" style="enable-background:new 0 0 24 24;" xml:space="preserve">
<style type="text/css">
	.st0{display:none;}
	.st1{display:inline;fill:#FFFFFF;}
	.st2{fill:#FFFFFF;}
</style>
<g id="home" class="st0">
	<polygon class="st1" points="12,3.5 2,12.5 5,12.5 5,20.5 9.5,20.5 9.5,12.5 14.5,12.5 14.5,20.5 19,20.5 19,12.5 22,12.5 	"/>
</g>
<g id="profile">
	<g>
		<path class="st2" d="M12,1.7c2.7,0,5.1,2.2,5.1,5.1s-2.2,5.1-5.1,5.1S6.9,9.7,6.9,6.8S9.3,1.7,12,1.7"/>
		<path class="st2" d="M12,15.5c3.3,0,10,1.8,10,5.1v1.8H2v-1.8C2,17.3,8.7,15.5,12,15.5z"/>
	</g>
</g>
</svg>
